<svg xmlns="http://www.w3.org/2000/svg" width="799.779" height="908.122" viewBox="0 0 799.779 908.122"><g transform="translate(-441 -36.513)"><path d="M572.069,549.74,541.445,373.165h10.343a14.993,14.993,0,0,0,15.023-15.023V247.2a14.993,14.993,0,0,0-15.023-15.023H409.65V127.023A14.993,14.993,0,0,0,394.627,112H302.179a14.993,14.993,0,0,0-15.023,15.023V232.182H145.018A14.993,14.993,0,0,0,130,247.2V358.142a14.993,14.993,0,0,0,15.023,15.023h10.343L124.738,549.74A14.994,14.994,0,0,0,139.529,567.3H557.277a12.246,12.246,0,0,0,2.542-.231,14.954,14.954,0,0,0,12.249-17.334ZM170.441,272.628H327.6V152.446h41.6V272.628H526.365v60.091H170.441ZM440.851,526.859V436.722a4.636,4.636,0,0,0-4.622-4.622H408.494a4.636,4.636,0,0,0-4.622,4.622v90.136H292.935V436.722a4.636,4.636,0,0,0-4.622-4.622H260.578a4.636,4.636,0,0,0-4.622,4.622v90.136H169.748l26.059-150.227H500.942L527,526.859Z" transform="translate(668.485 377.33)" fill="gray"/><path d="M688,312V264a8.024,8.024,0,0,0-8-8H296a8.024,8.024,0,0,0-8,8v48a8.024,8.024,0,0,0,8,8H680A8.024,8.024,0,0,0,688,312ZM296,400a8.024,8.024,0,0,0-8,8v48a8.024,8.024,0,0,0,8,8H480a8.024,8.024,0,0,0,8-8V408a8.024,8.024,0,0,0-8-8ZM440,852H208V148H768V492a8.024,8.024,0,0,0,8,8h56a8.024,8.024,0,0,0,8-8V108a31.966,31.966,0,0,0-32-32H168a31.966,31.966,0,0,0-32,32V892a31.966,31.966,0,0,0,32,32H440a8.024,8.024,0,0,0,8-8V860A8.024,8.024,0,0,0,440,852Z" transform="translate(305 -39.487)" fill="gray"/></g></svg>